<?xml version="1.0" encoding="utf-8"?>
<!-- Generator: Adobe Illustrator 18.0.0, SVG Export Plug-In . SVG Version: 6.00 Build 0)  -->
<!DOCTYPE svg PUBLIC "-//W3C//DTD SVG 1.1//EN" "http://www.w3.org/Graphics/SVG/1.1/DTD/svg11.dtd">
<svg version="1.1" id="Layer_1" xmlns="http://www.w3.org/2000/svg" xmlns:xlink="http://www.w3.org/1999/xlink" x="0px" y="0px"
	 viewBox="0 0 1000 673" enable-background="new 0 0 1000 673" xml:space="preserve">
<g>
	<polygon fill="#85ce07" points="544.7,484.5 705,434.8 705,377.1 540.8,444.9 	"/>
	<polygon fill="#85ce07" points="552.3,561.6 705,561.6 705,467.3 549.8,536.4 	"/>
	<polygon fill="#85ce07" points="507.2,153.6 507.2,153.5 308.8,153.5 308.8,269 487.6,297 492.2,249.9 506.6,249.9 506.6,250 
		521.6,250 526.2,297 705,269.1 705,153.6 	"/>
	<polygon fill="#85ce07" points="535.5,390.7 705,345.4 705,299.6 531.3,348 	"/>
	<polygon fill="#85ce07" points="308.8,434.7 469.1,484.4 473,444.8 308.8,377 	"/>
	<polygon fill="#85ce07" points="308.8,561.5 461.5,561.5 464,536.3 308.8,467.2 	"/>
	<polygon fill="#85ce07" points="308.8,345.3 478.3,390.6 482.5,347.9 308.8,299.5 	"/>
</g>
</svg>
