<?xml version="1.0" encoding="utf-8"?>
<!-- Generator: Adobe Illustrator 18.0.0, SVG Export Plug-In . SVG Version: 6.00 Build 0)  -->
<!DOCTYPE svg PUBLIC "-//W3C//DTD SVG 1.1//EN" "http://www.w3.org/Graphics/SVG/1.1/DTD/svg11.dtd">
<svg version="1.1" id="Layer_1" xmlns="http://www.w3.org/2000/svg" xmlns:xlink="http://www.w3.org/1999/xlink" x="0px" y="0px"
	 viewBox="0 0 1000 673" enable-background="new 0 0 1000 673" xml:space="preserve">
<polygon fill="#00A79D" points="519.4,149.5 499.6,149.5 499.6,149.4 480.6,149.4 474.5,211.4 238.9,174.5 238.9,214.7 467.9,278.5 
	462.3,334.8 238.9,275.1 238.9,316.9 455.3,406.2 450.2,458.4 238.9,393 238.9,435.8 443.4,526.8 440.1,560 440.1,560 559.9,560.1 
	556.6,526.9 761.1,435.9 761.1,393.1 549.8,458.5 544.7,406.3 761.1,317 761.1,275.2 537.7,334.9 532.1,278.7 761.1,214.8 
	761.1,174.6 525.5,211.5 "/>
</svg>
